<svg width="11" height="11" viewBox="0 0 11 11" fill="none" xmlns="http://www.w3.org/2000/svg">
<path d="M5.39647 3.84149C5.01582 3.84149 4.65936 3.97837 4.38947 4.22853C4.12085 4.47869 3.9719 4.80909 3.9719 5.16191C3.9719 5.51474 4.12085 5.84514 4.38947 6.0953C4.65936 6.34428 5.01582 6.48234 5.39647 6.48234C5.77712 6.48234 6.13359 6.34428 6.40348 6.0953C6.6721 5.84514 6.82105 5.51474 6.82105 5.16191C6.82105 4.80909 6.6721 4.47869 6.40348 4.22853C6.27166 4.10541 6.11475 4.00779 5.94188 3.94135C5.76901 3.8749 5.58362 3.84096 5.39647 3.84149ZM10.6454 6.6204L9.81279 5.96078C9.85225 5.73658 9.87262 5.50766 9.87262 5.27991C9.87262 5.05217 9.85225 4.82207 9.81279 4.59905L10.6454 3.93943C10.7083 3.88953 10.7533 3.82306 10.7744 3.74886C10.7956 3.67467 10.7919 3.59626 10.7638 3.52407L10.7523 3.49339C10.5232 2.89949 10.1798 2.34898 9.73895 1.86853L9.71603 1.84375C9.6625 1.7854 9.59114 1.74346 9.51137 1.72345C9.4316 1.70344 9.34716 1.7063 9.26918 1.73165L8.23544 2.07267C7.85352 1.78239 7.42831 1.55347 6.96745 1.39417L6.76758 0.39235C6.7525 0.31688 6.713 0.247449 6.65434 0.193282C6.59567 0.139114 6.52061 0.102774 6.43913 0.0890901L6.40475 0.0831901C5.74275 -0.02773 5.0451 -0.02773 4.3831 0.0831901L4.34873 0.0890901C4.26725 0.102774 4.19219 0.139114 4.13352 0.193282C4.07485 0.247449 4.03535 0.31688 4.02027 0.39235L3.81913 1.39889C3.36264 1.55946 2.93739 1.78783 2.56005 2.07503L1.51867 1.73165C1.44072 1.7061 1.35621 1.70313 1.2764 1.72316C1.19658 1.74318 1.12523 1.78524 1.07182 1.84375L1.0489 1.86853C0.608791 2.34949 0.265542 2.89986 0.0355331 3.49339L0.0240753 3.52407C-0.0332133 3.67157 0.0138907 3.83677 0.142472 3.93943L0.985251 4.60613C0.945785 4.82797 0.926689 5.05453 0.926689 5.27874C0.926689 5.5053 0.945785 5.73186 0.985251 5.95134L0.145018 6.61804C0.0821223 6.66794 0.0371071 6.73441 0.0159581 6.80861C-0.00519089 6.8828 -0.00147163 6.96121 0.0266214 7.0334L0.0380792 7.06408C0.268507 7.65762 0.608419 8.20632 1.05145 8.68894L1.07437 8.71372C1.1279 8.77207 1.19926 8.81401 1.27903 8.83402C1.3588 8.85403 1.44324 8.85117 1.52122 8.82582L2.5626 8.48244C2.94197 8.77154 3.36464 9.00046 3.82167 9.15858L4.02282 10.1651C4.0379 10.2406 4.0774 10.31 4.13607 10.3642C4.19473 10.4184 4.26979 10.4547 4.35127 10.4684L4.38565 10.4743C5.05416 10.5858 5.73879 10.5858 6.4073 10.4743L6.44167 10.4684C6.52315 10.4547 6.59821 10.4184 6.65688 10.3642C6.71555 10.31 6.75505 10.2406 6.77013 10.1651L6.97 9.1633C7.43085 9.00282 7.85606 8.77508 8.23799 8.4848L9.27173 8.82582C9.34969 8.85137 9.43419 8.85434 9.514 8.83431C9.59382 8.81429 9.66517 8.77223 9.71858 8.71372L9.7415 8.68894C10.1845 8.20396 10.5244 7.65762 10.7549 7.06408L10.7663 7.0334C10.8211 6.88708 10.774 6.72306 10.6454 6.6204ZM5.39647 7.23636C4.16031 7.23636 3.1584 6.3077 3.1584 5.16191C3.1584 4.01613 4.16031 3.08747 5.39647 3.08747C6.63263 3.08747 7.63455 4.01613 7.63455 5.16191C7.63455 6.3077 6.63263 7.23636 5.39647 7.23636Z" fill="#B7B7B7"/>
</svg>
