<svg width="20" height="20" viewBox="0 0 20 20" fill="none" xmlns="http://www.w3.org/2000/svg">
<path d="M14.125 8.52491L9.40829 13.2416C9.08329 13.5666 8.55829 13.5666 8.23329 13.2416L5.87496 10.8832C5.54996 10.5582 5.54996 10.0332 5.87496 9.70824C6.19996 9.38324 6.72496 9.38324 7.04996 9.70824L8.81663 11.4749L12.9416 7.34991C13.2666 7.02491 13.7916 7.02491 14.1166 7.34991C14.45 7.67491 14.45 8.19991 14.125 8.52491ZM3.33329 9.99991C3.33329 8.05824 4.18329 6.31657 5.51663 5.09991L6.79163 6.37491C7.04996 6.63324 7.49996 6.44991 7.49996 6.07491V2.49991C7.49996 2.26657 7.31663 2.08324 7.08329 2.08324H3.50829C3.13329 2.08324 2.94996 2.53324 3.21663 2.79157L4.33329 3.91657C2.69996 5.43324 1.66663 7.59157 1.66663 9.99991C1.66663 13.9582 4.43329 17.2749 8.13329 18.1249C8.65829 18.2416 9.16663 17.8499 9.16663 17.3082C9.16663 16.9166 8.89163 16.5832 8.50829 16.4916C5.54996 15.8166 3.33329 13.1666 3.33329 9.99991ZM18.3333 9.99991C18.3333 6.04157 15.5666 2.72491 11.8666 1.87491C11.3416 1.75824 10.8333 2.14991 10.8333 2.69157C10.8333 3.08324 11.1083 3.41657 11.4916 3.50824C14.45 4.18324 16.6666 6.83324 16.6666 9.99991C16.6666 11.9416 15.8166 13.6832 14.4833 14.8999L13.2083 13.6249C12.95 13.3666 12.5 13.5499 12.5 13.9249V17.4999C12.5 17.7332 12.6833 17.9166 12.9166 17.9166H16.4916C16.8666 17.9166 17.05 17.4666 16.7833 17.2082L15.6666 16.0832C17.3 14.5666 18.3333 12.4082 18.3333 9.99991Z" fill="#41B7B0"/>
<rect x="17" y="2" width="1" height="1" fill="white"/>
</svg>
