<svg width="20" height="20" viewBox="0 0 20 20" fill="none" xmlns="http://www.w3.org/2000/svg">
<path d="M1.33514e-05 9.99846C1.33514e-05 4.47648 4.47654 0 9.99851 0C15.5205 0 19.997 4.47648 19.997 9.99846C19.997 11.641 19.5999 13.2274 18.8523 14.6481L19.9685 18.9358C20.005 19.0762 20.005 19.2237 19.9684 19.3642C19.8501 19.8184 19.386 20.0906 18.9318 19.9724L14.642 18.8554C13.2229 19.601 11.6387 19.997 9.99851 19.997C4.47654 19.997 1.33514e-05 15.5205 1.33514e-05 9.99846ZM9.99851 4.50078C9.58437 4.50078 9.24862 4.83652 9.24862 5.25067V11.4997C9.24862 11.9139 9.58437 12.2496 9.99851 12.2496C10.4126 12.2496 10.7484 11.9139 10.7484 11.4997V5.25067C10.7484 4.83652 10.4126 4.50078 9.99851 4.50078ZM8.99866 14.4972C8.99866 15.0493 9.44629 15.497 9.99851 15.497C10.5507 15.497 10.9984 15.0493 10.9984 14.4972C10.9984 13.945 10.5507 13.4973 9.99851 13.4973C9.44629 13.4973 8.99866 13.945 8.99866 14.4972Z" fill="#FF9E2B"/>
<rect x="4" y="4" width="1" height="1" fill="#FF9E2B"/>
</svg>
