<svg width="22" height="22" viewBox="0 0 22 22" fill="none" xmlns="http://www.w3.org/2000/svg">
<path d="M19.7083 6.44546C20.1774 6.44546 20.5916 6.68028 20.8398 7.03876L20.9139 7.15851C21.6028 8.27616 22 9.59171 22 11C22 14.9262 18.9127 18.1316 15.0327 18.3223L14.6667 18.3313L10.1842 18.33L11.5086 19.6534C11.9968 20.1414 12.0411 20.9051 11.6417 21.4432L11.5086 21.5974C11.0204 22.0854 10.2566 22.1298 9.71828 21.7305L9.56406 21.5974L5.89428 17.9286C5.40612 17.4406 5.36174 16.677 5.76114 16.1388L5.89428 15.9846L9.56406 12.3159C10.101 11.7791 10.9716 11.7791 11.5086 12.3159C11.9968 12.8039 12.0411 13.5676 11.6417 14.1057L11.5086 14.2599L10.186 15.5808L14.6667 15.582C17.0967 15.582 19.0851 13.6914 19.2403 11.3013L19.25 11C19.25 10.0936 18.9867 9.24865 18.5325 8.53743C18.4074 8.32945 18.3333 8.08341 18.3333 7.82007C18.3333 7.06089 18.9489 6.44546 19.7083 6.44546V6.44546ZM10.4861 0.402614C10.9742 -0.0854031 11.7381 -0.129768 12.2764 0.269519L12.4306 0.402614L16.1004 4.07136L16.2335 4.22553C16.5885 4.70387 16.5929 5.36041 16.2467 5.84316L16.1004 6.01535L12.4306 9.68409L12.2764 9.81719C11.7979 10.1721 11.1412 10.1765 10.6583 9.83034L10.4861 9.68409L10.3529 9.52992C9.99791 9.05158 9.99352 8.39504 10.3398 7.9123L10.4861 7.7401L11.8085 6.41668L7.33333 6.41796C4.90328 6.41796 2.91493 8.30858 2.75975 10.6987L2.75 11C2.75 11.7724 2.94117 12.5001 3.27878 13.1385L3.47894 13.477C3.59827 13.6806 3.66667 13.9177 3.66667 14.1708C3.66667 14.93 3.05106 15.5454 2.29167 15.5454C1.80044 15.5454 1.36937 15.2879 1.12618 14.9005C0.413023 13.7757 0 12.4361 0 11C0 7.07375 3.08728 3.86838 6.96733 3.67772L7.33333 3.66874L11.8067 3.66746L10.4861 2.34661L10.3529 2.19243C9.95353 1.6543 9.99791 0.890631 10.4861 0.402614V0.402614Z" fill="#7BCDC8"/>
</svg>
