<svg width="17" height="16" viewBox="0 0 17 16" fill="none" xmlns="http://www.w3.org/2000/svg">
<path d="M8.94426 0.350692L10.8239 4.6379C10.9678 4.96607 11.2792 5.19091 11.6367 5.22303L16.2158 5.63359C16.7338 5.709 16.9405 6.3444 16.5649 6.71028L13.1156 9.60799C12.8363 9.8426 12.7092 10.2113 12.786 10.5674L13.7887 15.261C13.8766 15.7763 13.3362 16.1701 12.8726 15.9257L8.87583 13.5852C8.5686 13.405 8.18876 13.405 7.88153 13.5852L3.88479 15.9243C3.42256 16.1673 2.88072 15.7749 2.9687 15.2596L3.97138 10.566C4.04679 10.2099 3.9211 9.8412 3.64181 9.60659L0.191093 6.71168C-0.183165 6.3472 0.0235146 5.7104 0.540214 5.63499L5.11929 5.22442C5.47679 5.1923 5.7882 4.96747 5.93204 4.6393L7.81171 0.352089C8.04492 -0.11713 8.71244 -0.11713 8.94426 0.350692Z" fill="#FDD835"/>
<path d="M8.80751 4.89475L8.48911 1.7359C8.47654 1.55994 8.44023 1.2583 8.72232 1.2583C8.94576 1.2583 9.06725 1.72333 9.06725 1.72333L10.0224 4.25935C10.3827 5.22432 10.2347 5.55528 9.88699 5.75079C9.4876 5.97423 8.89828 5.79967 8.80751 4.89475Z" fill="#FFFF8D"/>
<path d="M12.7468 9.32712L15.4867 7.1891C15.6221 7.07599 15.8665 6.89584 15.671 6.69056C15.516 6.52856 15.097 6.76178 15.097 6.76178L12.6993 7.69882C11.9843 7.94599 11.5095 8.31187 11.4676 8.77271C11.4131 9.38717 11.9647 9.86058 12.7468 9.32712Z" fill="#F4B400"/>
<rect x="13" y="2" width="1" height="2" fill="white"/>
</svg>
