<svg width="20" height="24" viewBox="0 0 20 24" fill="none" xmlns="http://www.w3.org/2000/svg">
<path d="M18 2H14V1.15C14 0.52 13.48 0 12.85 0H7.15C6.52 0 6 0.52 6 1.15V2H2C0.9 2 0 2.9 0 4C0 4.74 0.4 5.38 1 5.73V19.75C1 22.09 2.91 24 5.25 24H14.75C17.09 24 19 22.09 19 19.75V5.73C19.6 5.38 20 4.74 20 4C20 2.9 19.1 2 18 2ZM17 19.75C17 20.99 15.99 22 14.75 22H5.25C4.01 22 3 20.99 3 19.75V6H17V19.75Z" fill="#DD4956"/>
<path d="M6 20.022C5.447 20.022 5 19.575 5 19.022V9.02197C5 8.46897 5.447 8.02197 6 8.02197C6.553 8.02197 7 8.46897 7 9.02197V19.022C7 19.575 6.553 20.022 6 20.022ZM14 20.022C13.447 20.022 13 19.575 13 19.022V9.02197C13 8.46897 13.447 8.02197 14 8.02197C14.553 8.02197 15 8.46897 15 9.02197V19.022C15 19.575 14.553 20.022 14 20.022ZM10 20.022C9.447 20.022 9 19.575 9 19.022V9.02197C9 8.46897 9.447 8.02197 10 8.02197C10.553 8.02197 11 8.46897 11 9.02197V19.022C11 19.575 10.553 20.022 10 20.022Z" fill="#DD4956"/>
<rect x="11" y="7" width="1" height="1" fill="white"/>
</svg>
