<svg width="26" height="24" viewBox="0 0 26 24" fill="none" xmlns="http://www.w3.org/2000/svg">
<path d="M12.9757 0C20.142 0 25.9514 4.52791 25.9514 10.1149C25.9514 15.7006 20.142 20.2285 12.9757 20.2285C12.2621 20.2289 11.5493 20.1835 10.8415 20.0926L5.39419 23.6553C4.77506 23.9828 4.55633 23.947 4.8109 23.145L5.91322 18.5998C2.35417 16.7955 0 13.669 0 10.1149C0 4.52914 5.80941 0 12.9757 0ZM20.2755 9.96041L22.0921 8.20065C22.1969 8.09179 22.2554 7.94649 22.2552 7.79537C22.255 7.64425 22.1962 7.49909 22.0911 7.39048C21.986 7.28188 21.8429 7.21829 21.6918 7.21313C21.5408 7.20796 21.3937 7.26162 21.2814 7.36279L18.8988 9.66876V7.76318C18.8988 7.60849 18.8374 7.46013 18.728 7.35074C18.6186 7.24135 18.4702 7.1799 18.3155 7.1799C18.1608 7.1799 18.0125 7.24135 17.9031 7.35074C17.7937 7.46013 17.7322 7.60849 17.7322 7.76318V10.9231C17.7104 11.0132 17.7104 11.1073 17.7322 11.1974V12.9757C17.7322 13.1304 17.7937 13.2788 17.9031 13.3882C18.0125 13.4976 18.1608 13.559 18.3155 13.559C18.4702 13.559 18.6186 13.4976 18.728 13.3882C18.8374 13.2788 18.8988 13.1304 18.8988 12.9757V11.2913L19.4265 10.781L21.1912 13.2933C21.2353 13.356 21.2912 13.4095 21.3559 13.4506C21.4207 13.4916 21.4928 13.5196 21.5683 13.5328C21.6438 13.546 21.7212 13.5442 21.796 13.5275C21.8708 13.5108 21.9416 13.4795 22.0043 13.4354C22.0671 13.3914 22.1205 13.3354 22.1616 13.2707C22.2027 13.206 22.2306 13.1338 22.2438 13.0583C22.257 12.9828 22.2552 12.9054 22.2385 12.8306C22.2218 12.7558 22.1905 12.685 22.1465 12.6223L20.2755 9.95917V9.96041ZM16.62 12.3381H14.8158V7.78172C14.8089 7.63183 14.7445 7.49036 14.636 7.38673C14.5275 7.2831 14.3832 7.22527 14.2331 7.22527C14.0831 7.22527 13.9388 7.2831 13.8303 7.38673C13.7218 7.49036 13.6574 7.63183 13.6505 7.78172V12.9213C13.6505 13.2426 13.91 13.5046 14.2325 13.5046H16.62C16.7747 13.5046 16.9231 13.4432 17.0325 13.3338C17.1419 13.2244 17.2033 13.076 17.2033 12.9213C17.2033 12.7666 17.1419 12.6183 17.0325 12.5089C16.9231 12.3995 16.7747 12.3381 16.62 12.3381ZM9.38206 10.9886L10.2422 8.8791L11.0306 10.9886H9.38206ZM12.4999 11.5916L12.5024 11.5719C12.5021 11.4249 12.446 11.2836 12.3455 11.1764L11.0528 7.71623C10.9987 7.55133 10.8954 7.4069 10.757 7.30223C10.6185 7.19756 10.4514 7.13764 10.278 7.13047C10.1033 7.1297 9.93253 7.18214 9.78837 7.28082C9.64422 7.37949 9.53353 7.51973 9.47104 7.68286L7.4184 12.7187C7.38943 12.7896 7.37472 12.8655 7.37509 12.9421C7.37547 13.0187 7.39093 13.0945 7.4206 13.1651C7.45026 13.2358 7.49354 13.2999 7.54798 13.3538C7.60241 13.4077 7.66693 13.4503 7.73785 13.4793C7.80877 13.5083 7.8847 13.523 7.96131 13.5226C8.03791 13.5222 8.11369 13.5068 8.18432 13.4771C8.25495 13.4474 8.31905 13.4042 8.37295 13.3497C8.42685 13.2953 8.46951 13.2308 8.49848 13.1598L8.90628 12.1552H11.4644L11.8339 13.1438C11.859 13.2177 11.8987 13.2858 11.9506 13.3441C12.0025 13.4023 12.0656 13.4496 12.1361 13.4831C12.2066 13.5165 12.2832 13.5355 12.3611 13.5388C12.4391 13.5421 12.517 13.5298 12.5901 13.5025C12.6632 13.4752 12.7301 13.4335 12.7868 13.3799C12.8435 13.3263 12.8889 13.2618 12.9203 13.1903C12.9516 13.1188 12.9683 13.0418 12.9693 12.9638C12.9704 12.8857 12.9557 12.8083 12.9263 12.736L12.4999 11.5916ZM8.39467 7.7879C8.39467 7.63342 8.33339 7.48524 8.22427 7.37589C8.11514 7.26654 7.9671 7.20494 7.81262 7.20461H3.8025C3.6478 7.20461 3.49944 7.26606 3.39005 7.37545C3.28067 7.48484 3.21921 7.6332 3.21921 7.7879C3.21921 7.9426 3.28067 8.09096 3.39005 8.20035C3.49944 8.30974 3.6478 8.37119 3.8025 8.37119H5.23601V12.9881C5.23601 13.1428 5.29746 13.2911 5.40685 13.4005C5.51624 13.5099 5.6646 13.5714 5.8193 13.5714C5.974 13.5714 6.12236 13.5099 6.23175 13.4005C6.34113 13.2911 6.40259 13.1428 6.40259 12.9881V8.37119H7.81138C8.13392 8.37119 8.39467 8.1092 8.39467 7.7879Z" fill="#4E5E5E"/>
</svg>
