<svg width="16" height="16" viewBox="0 0 16 16" fill="none" xmlns="http://www.w3.org/2000/svg">
<path fill-rule="evenodd" clip-rule="evenodd" d="M0 8.00002C0 3.58174 3.58173 0 8.00003 0C12.4183 0 16 3.58174 16 8.00002C16 12.4183 12.4183 16.0001 8.00003 16.0001C3.58173 16.0001 0 12.4183 0 8.00002ZM8.00003 1.14755C4.21551 1.14755 1.14755 4.21551 1.14755 8.00002C1.14755 11.7845 4.21551 14.8526 8.00003 14.8526C11.7845 14.8526 14.8525 11.7845 14.8525 8.00002C14.8525 4.21551 11.7845 1.14755 8.00003 1.14755ZM8.90601 11.6242C8.90601 12.1245 8.50039 12.5302 8.00005 12.5302C7.4997 12.5302 7.09409 12.1245 7.09409 11.6242C7.09409 11.1239 7.4997 10.7182 8.00005 10.7182C8.50039 10.7182 8.90601 11.1239 8.90601 11.6242ZM6.24865 6.49043C6.24865 5.67157 6.9554 4.8899 8.00017 4.8899C9.04496 4.8899 9.75169 5.67157 9.75169 6.49043C9.75169 7.08374 9.42554 7.38687 8.86318 7.7285C8.80041 7.76663 8.72802 7.80867 8.65058 7.85364L8.65051 7.85369C8.42921 7.9822 8.16669 8.13467 7.96932 8.28844C7.67658 8.51654 7.3358 8.88455 7.3358 9.44989C7.33581 9.81682 7.63326 10.1143 8.00018 10.1143C8.36542 10.1143 8.66182 9.81954 8.66453 9.45493L8.66518 9.45388C8.67567 9.43733 8.7067 9.39837 8.786 9.33659C8.9086 9.24106 9.04511 9.16196 9.22701 9.05654L9.22706 9.0565C9.32189 9.00154 9.42909 8.93943 9.55306 8.86411C10.1986 8.47192 11.0804 7.82378 11.0804 6.49043C11.0804 4.89339 9.73367 3.56116 8.00017 3.56116C6.26669 3.56116 4.91991 4.89339 4.91991 6.49043C4.91991 6.85735 5.21737 7.1548 5.58428 7.1548C5.95121 7.1548 6.24865 6.85735 6.24865 6.49043Z" fill="#C8D3D3"/>
</svg>
