<svg width="18" height="18" viewBox="0 0 12 12" fill="none" xmlns="http://www.w3.org/2000/svg">
<path fill-rule="evenodd" clip-rule="evenodd" d="M0 6.00001C0 2.6863 2.6863 0 6.00002 0C9.31374 0 12 2.6863 12 6.00001C12 9.31372 9.31374 12.0001 6.00002 12.0001C2.6863 12.0001 0 9.31372 0 6.00001ZM6.00002 0.86066C3.16163 0.86066 0.860666 3.16163 0.860666 6.00001C0.860666 8.83837 3.16163 11.1394 6.00002 11.1394C8.83838 11.1394 11.1393 8.83837 11.1393 6.00001C11.1393 3.16163 8.83838 0.86066 6.00002 0.86066ZM6.67951 8.71815C6.67951 9.0934 6.3753 9.39762 6.00004 9.39762C5.62477 9.39762 5.32057 9.0934 5.32057 8.71815C5.32057 8.3429 5.62477 8.03868 6.00004 8.03868C6.3753 8.03868 6.67951 8.3429 6.67951 8.71815ZM4.68649 4.86782C4.68649 4.25368 5.21655 3.66742 6.00013 3.66742C6.78372 3.66742 7.31377 4.25368 7.31377 4.86782C7.31377 5.31281 7.06915 5.54015 6.64738 5.79637C6.60031 5.82497 6.54602 5.8565 6.48793 5.89023L6.48788 5.89027C6.32191 5.98665 6.12502 6.101 5.97699 6.21633C5.75743 6.3874 5.50185 6.66341 5.50185 7.08742C5.50186 7.36261 5.72494 7.5857 6.00014 7.5857C6.27406 7.5857 6.49637 7.36465 6.4984 7.0912L6.49889 7.09041C6.50675 7.078 6.53003 7.04878 6.5895 7.00244C6.68145 6.9308 6.78383 6.87147 6.92026 6.7924L6.92029 6.79238C6.99142 6.75115 7.07182 6.70457 7.16479 6.64808C7.64898 6.35394 8.3103 5.86783 8.3103 4.86782C8.3103 3.67004 7.30025 2.67087 6.00013 2.67087C4.70001 2.67087 3.68993 3.67004 3.68993 4.86782C3.68993 5.14301 3.91302 5.3661 4.18821 5.3661C4.4634 5.3661 4.68649 5.14301 4.68649 4.86782Z" fill="#797878"/>
<rect x="5" y="1" width="1" height="1" fill="white"/>
</svg>
