<svg width="304" height="64" viewBox="0 0 304 64" fill="none" xmlns="http://www.w3.org/2000/svg">
<g filter="url(#filter0_d_152_38)">
<rect x="2" width="300" height="60" rx="30" fill="#F7E600"/>
</g>
<path d="M108.766 22.8203H100.66V24.5781H106.607C106.539 25.5059 106.393 26.375 106.168 27.2051L99.7422 27.6055L100.016 29.4805L105.514 28.9629C104.488 31.0527 102.662 32.8203 99.6055 34.3242L100.797 35.9648C107.301 32.7324 108.756 28.1523 108.766 22.8203ZM111.246 38.6992H113.414V29.7734H116.031V27.9961H113.414V21.082H111.246V38.6992ZM126.051 22.8203H117.945V24.5781H123.893C123.824 25.5059 123.678 26.375 123.453 27.2051L117.027 27.6055L117.301 29.4805L122.799 28.9629C121.773 31.0527 119.947 32.8203 116.891 34.3242L118.082 35.9648C124.586 32.7324 126.041 28.1523 126.051 22.8203ZM128.531 38.6992H130.699V29.7734H133.316V27.9961H130.699V21.082H128.531V38.6992ZM142.184 22.0781C138.424 22.0879 135.631 23.9727 135.641 26.8438C135.631 29.4902 137.906 31.2578 141.109 31.5801V34.8125H134.156V36.5898H150.289V34.8125H143.258V31.5801C146.5 31.2578 148.775 29.4902 148.766 26.8438C148.775 23.9727 145.973 22.0879 142.184 22.0781ZM137.77 26.8438C137.76 24.998 139.605 23.8262 142.184 23.8359C144.801 23.8262 146.637 24.998 146.637 26.8438C146.637 28.748 144.801 29.8906 142.184 29.8906C139.605 29.8906 137.76 28.748 137.77 26.8438ZM167.574 34.8906H160.543V32.0195H166.07V30.2422H155.523V27.957H165.66V22.293H153.316V24.0508H163.512V26.2383H153.355V32.0195H158.395V34.8906H151.441V36.6875H167.574V34.8906ZM180.152 25.3203V22.5078H177.945V25.3203C177.936 28.7285 176.217 32.0977 173.277 33.3672L174.605 35.1836C176.744 34.1777 178.268 32.1465 179.078 29.666C179.898 31.9707 181.383 33.8359 183.414 34.7734L184.703 33.0352C181.842 31.8047 180.133 28.5625 180.152 25.3203ZM185.973 38.7578H188.16V21.082H185.973V38.7578ZM197.086 24.1484V23.9336H200.758V22.1953H191.168V23.9336H194.898V24.1484C194.898 26.4629 193.404 28.748 190.562 29.6953L191.715 31.375C193.775 30.6719 195.24 29.2363 196.021 27.4297C196.793 29.0801 198.189 30.3984 200.172 31.0625L201.266 29.3828C198.482 28.4648 197.086 26.3262 197.086 24.1484ZM192.926 34.2852H202.516V38.7383H204.684V32.5469H192.926V34.2852ZM202.516 31.7266H204.684V27.3125H207.145V25.4961H204.684V21.082H202.516V31.7266ZM221.871 21.082H219.723V38.7383H221.871V29.9102H224.586V28.1133H221.871V21.082ZM207.945 25.5352H218.355V23.7969H214.293V21.3359H212.125V23.7969H207.945V25.5352ZM208.766 30.8477C208.746 33.2793 210.641 34.9883 213.219 34.9883C215.758 34.9883 217.643 33.2793 217.652 30.8477C217.643 28.4062 215.758 26.6777 213.219 26.6875C210.641 26.6777 208.746 28.4062 208.766 30.8477ZM210.836 30.8477C210.826 29.4121 211.832 28.4648 213.219 28.4648C214.576 28.4648 215.562 29.4121 215.582 30.8477C215.562 32.2832 214.576 33.2012 213.219 33.1914C211.832 33.2012 210.826 32.2832 210.836 30.8477ZM240.074 21.082H237.887V38.7383H240.074V21.082ZM225.445 33.875L226.578 35.6133C232.76 32.6738 234.801 28.2109 234.801 22.957H226.344V24.6758H232.594C232.203 28.6895 230.074 31.6777 225.445 33.875Z" fill="#191919"/>
<path d="M62 19C64.1696 19 66.1763 19.4223 68.0201 20.2668C69.8638 21.1113 71.3215 22.2597 72.3928 23.7119C73.4643 25.1641 74 26.7481 74 28.464C74 30.1798 73.4643 31.7661 72.3928 33.2228C71.3215 34.6795 69.8661 35.8301 68.0268 36.6746C66.1875 37.5191 64.1786 37.9414 62 37.9414C61.3125 37.9414 60.6027 37.8923 59.8705 37.794C56.6919 40.0013 55 41.1184 54.7947 41.1452C54.6964 41.181 54.6027 41.1765 54.5134 41.1319C54.4777 41.105 54.4509 41.0693 54.433 41.0246C54.4152 40.9799 54.4063 40.9397 54.4063 40.9039V40.8503C54.4598 40.5018 54.8661 39.0496 55.625 36.4937C53.9018 35.6358 52.5335 34.4986 51.5201 33.0821C50.5067 31.6656 50 30.1262 50 28.464C50 26.7481 50.5357 25.1641 51.6071 23.7119C52.6786 22.2597 54.1362 21.1113 55.9799 20.2668C57.8237 19.4223 59.8304 19 62 19Z" fill="#191919"/>
<defs>
<filter id="filter0_d_152_38" x="0" y="0" width="304" height="64" filterUnits="userSpaceOnUse" color-interpolation-filters="sRGB">
<feFlood flood-opacity="0" result="BackgroundImageFix"/>
<feColorMatrix in="SourceAlpha" type="matrix" values="0 0 0 0 0 0 0 0 0 0 0 0 0 0 0 0 0 0 127 0" result="hardAlpha"/>
<feOffset dy="2"/>
<feGaussianBlur stdDeviation="1"/>
<feComposite in2="hardAlpha" operator="out"/>
<feColorMatrix type="matrix" values="0 0 0 0 0 0 0 0 0 0 0 0 0 0 0 0 0 0 0.1 0"/>
<feBlend mode="normal" in2="BackgroundImageFix" result="effect1_dropShadow_152_38"/>
<feBlend mode="normal" in="SourceGraphic" in2="effect1_dropShadow_152_38" result="shape"/>
</filter>
</defs>
</svg>
